<svg xmlns="http://www.w3.org/2000/svg" viewBox="0 0 60 40">
  <path fill="#002395" d="M0 0h60v40H0z"/>
  <path fill="#fecb00" d="M22 0h28L22 40z"/>
  <g fill="#fff">
    <path d="m20 3 1.2 2.6 2.8.3-2.1 1.9.6 2.8L20 9.2l-2.5 1.4.6-2.8L16 5.9l2.8-.3z"/>
    <path d="m17 9 1.2 2.6 2.8.3-2.1 1.9.6 2.8-2.5-1.4-2.5 1.4.6-2.8-2.1-1.9 2.8-.3z"/>
    <path d="m14 15 1.2 2.6 2.8.3-2.1 1.9.6 2.8-2.5-1.4-2.5 1.4.6-2.8-2.1-1.9 2.8-.3z"/>
    <path d="m11 21 1.2 2.6 2.8.3-2.1 1.9.6 2.8-2.5-1.4-2.5 1.4.6-2.8L7 23.9l2.8-.3z"/>
    <path d="m8 27 1.2 2.6 2.8.3-2.1 1.9.6 2.8L8 33.2l-2.5 1.4.6-2.8L4 29.9l2.8-.3z"/>
  </g>
</svg>
